<?xml version="1.0" encoding="iso-8859-1"?>
<!DOCTYPE svg PUBLIC "-//W3C//DTD SVG 1.1//EN" "http://www.w3.org/Graphics/SVG/1.1/DTD/svg11.dtd">
<svg xmlns="http://www.w3.org/2000/svg" width="455.407" height="72.781" viewBox="0 0 455.407 72.781">
	<defs>
		<style>
			.title { fill: #fff; fill-rule: evenodd; }
		</style>
	</defs>
	<path class="title" transform="translate(-53.281 -40.969)" d="M84.722, 113.125c4.477, 0.626, 16.653-1.7, 21.129-7.163l1.074-33.484c4.3-5.909, 11.1-8.953, 10.834-.985l-0.985, 29.187c-0.09, 3.492, 1.432, 12.892, 12.623, 12.892a31.286, 31.286, 0, 0, 0, 22.2-9.758V102.2c-2.686, 2.059-6.267, 4.208-9.848, 4.208-2.06, 0-3.761-1.164-3.671-4.476l0.9-29.993c0.448-17.279-23.994-16.294-32.141-1.611-0.806-15.668-20.323-13.34-32.5, 1.611v-3.76c-4.477-5.461-16.563-7.789-21.04-7.163v51.838c4.924, 0.9, 16.921.179, 21.04-1.611V74c5.551-6.178, 11.549-9.4, 11.37-2.507Zm114.59-26.77c0-10.027-13.788-12.176-20.681-12.176-12.356, 0-28.829, 7.162-28.829, 21.308, 0, 13.967, 11.1, 18.085, 23.188, 18.085, 16.2, 0, 26.143-5.013, 32.947-9.848v-1.611c-7.61, 4.655-15.488, 6.893-21.935, 6.893-8.415, 0-12.534-3.849-14.056-8.953C182.57, 101.038, 199.312, 96.83, 199.312, 86.355ZM178.631, 75.97c2.865, 0, 4.566, 3.76, 4.566, 8.147, 0, 6.536-3.671, 14.414-13.609, 14.5C167.529, 88.952, 173.8, 75.97, 178.631, 75.97Zm57.831, 0.716V74.9h-9.848V64.51c-4.477-.627-14.862, 1.7-19.339, 7.162V74.9H202.8v1.791h2.686v24.352A12.509, 12.509, 0, 0, 0, 218.2, 113.483c7.789, 0, 15.668-3.223, 22.2-9.759v-1.611c-3.223, 2.417-6.356, 4.207-10.206, 4.207-1.97, 0-3.581-1.074-3.581-5.192V76.686h9.848Zm67.683, 25.427c-3.224, 2.417-6.357, 4.207-10.207, 4.207-1.97, 0-3.581-1.074-3.581-5.192V76.149c-5.282-1.611-12.713-2.059-17.727-2.059-23.815, 0-34.022, 8.864-34.022, 21.308, 0, 11.549, 5.909, 18.085, 15.758, 18.085, 7.252, 0, 11.907-4.029, 15.489-9.311, 1.163, 4.208, 3.939, 9.311, 12.086, 9.311, 7.789, 0, 15.668-3.223, 22.2-9.759v-1.611Zm-34.917.805c-1.7, 1.7-3.313, 2.507-4.745, 2.507-4.566, 0-7.521-5.819-7.521-12.713, 0-11.728, 5.014-16.563, 12.266-16.742v26.948Zm34.463-1.88A12.509, 12.509, 0, 0, 0, 316.4, 113.483c7.7, 0, 15.489-3.134, 22.024-9.58a12.425, 12.425, 0, 0, 0, 12.355, 9.58c7.79, 0, 15.668-3.223, 22.2-9.759v-1.611c-3.223, 2.417-6.357, 4.207-10.207, 4.207-1.969, 0-3.581-1.074-3.581-5.192V61.555c7.342-2.059, 12.982-6.357, 12.982-11.728, 0-5.819-4.745-8.863-11.1-8.863-9.848, 0-23.009, 6.8-23.009, 17.816v5.909a93.959, 93.959, 0, 0, 1-13.25.358V60.66c-4.477-5.461-16.653-7.789-21.129-7.162v47.54Zm34.379, 0a7.667, 7.667, 0, 0, 0, .09, 1.433c-3.134, 2.238-6.088, 3.849-9.759, 3.849-1.97, 0-3.581-1.074-3.581-5.192V66.659a93.539, 93.539, 0, 0, 0, 13.25-.269v34.648ZM359.2, 50.185a4.088, 4.088, 0, 0, 1, 4.3-3.939c2.686, 0, 4.029, 1.7, 4.029, 3.76, 0, 3.044-2.865, 7.431-8.327, 10.027V50.185Zm24.256, 20.86c6.267, 0, 11.37-3.76, 11.37-8.326, 0-4.656-5.1-8.326-11.37-8.326-6.357, 0-11.46, 3.671-11.46, 8.326C372, 67.285, 377.1, 71.046, 383.455, 71.046Zm-10.833, 29.992a12.509, 12.509, 0, 0, 0, 12.713, 12.445c7.789, 0, 15.668-3.223, 22.2-9.759v-1.611c-3.223, 2.417-6.357, 4.207-10.207, 4.207-1.969, 0-3.581-1.074-3.581-5.192V81.789C389.274, 76.328, 377.1, 74, 372.622, 74.627v26.411Zm73.86-23.546a7.856, 7.856, 0, 1, 0, 8.684, 7.789c0-2.6-2.864-11.1-20.591-11.1-12.445, 0-28.829, 7.162-28.829, 21.308, 0, 13.519, 11.191, 18.175, 23.725, 18.175, 12.8, 0, 25.964-4.924, 32.41-9.938v-1.611c-5.64, 3.67-14.414, 6.893-21.935, 6.893-9.4, 0-14.324-6.8-14.324-14.056C425.622, 86.534, 432.247, 77.492, 446.482, 77.492Zm50.848, 4.924a5.005, 5.005, 0, 0, 0, 5.014, 5.014, 5.083, 5.083, 0, 0, 0, 5.1-5.014c0-7.073-16.384-8.237-20.771-8.237-7.073, 0-22.293, 2.328-22.293, 12.266, 0, 9.4, 22.741, 13.161, 22.741, 19.428, 0, 9.042-20.95, 1.7-23.905.179v1.611c4.029, 2.507, 13.967, 6.088, 22.472, 6.088, 10.565, 0, 23.009-3.312, 23.009-12.444, 0-10.654-22.651-11.55-22.651-18.623, 0-6.536, 8.953-6, 13.967-4.745A5.057, 5.057, 0, 0, 0, 497.33, 82.416Z" />
</svg>
